<svg width="129" height="42" viewBox="0 0 129 42" fill="none" xmlns="http://www.w3.org/2000/svg">
<path d="M128.527 36.3236C128.527 37.8289 127.929 39.2725 126.865 40.3371C125.801 41.4016 124.358 41.9998 122.852 42.0001H5.80671C4.30132 41.9999 2.85765 41.4018 1.79324 40.3373C0.728831 39.2728 0.130859 37.829 0.130859 36.3236V5.67729C0.131023 4.17202 0.729066 2.72842 1.79346 1.66403C2.85785 0.599639 4.30143 0.00162892 5.80671 0.00146484H122.852C123.598 0.0015461 124.336 0.148413 125.024 0.433695C125.713 0.718977 126.338 1.13706 126.865 1.66411C127.392 2.19116 127.81 2.81684 128.095 3.50542C128.38 4.194 128.527 4.93201 128.527 5.67729V36.3236Z" fill="black"/>
<path d="M33.6137 27.7616C33.1008 28.9891 32.4713 30.1646 31.7339 31.2718C30.5125 33.1281 28.7917 35.446 26.6601 35.4658C24.7649 35.4831 24.2785 34.232 21.707 34.2462C19.1354 34.2604 18.5984 35.4874 16.7031 35.4701C14.5709 35.4503 12.9398 33.3601 11.7184 31.5014C8.30351 26.3039 7.94401 20.2029 10.0527 16.9606C11.5495 14.6558 13.9101 13.31 16.1301 13.31C18.3905 13.31 19.8111 14.5475 21.6804 14.5475C23.4927 14.5475 24.5978 13.3057 27.2108 13.3057C28.2965 13.3551 29.3579 13.6438 30.319 14.1512C31.2801 14.6587 32.1172 15.3723 32.7703 16.241C27.8828 18.9171 28.6767 25.8961 33.6137 27.7616Z" fill="white"/>
<path d="M25.2278 11.2276C25.7628 10.5771 26.1629 9.82666 26.4048 9.01992C26.6467 8.21318 26.7255 7.36634 26.6367 6.52881C24.9138 6.73347 23.3326 7.58389 22.212 8.90855C21.2504 10.0768 20.4572 11.8086 20.766 13.4917C21.6317 13.4723 22.4821 13.2589 23.2543 12.867C24.0266 12.4752 24.701 11.9149 25.2278 11.2276Z" fill="white"/>
<path d="M44.0153 16.8816L39.124 31.28H41.3639L42.8242 26.859H47.5601L49.0619 31.28H51.3636L46.4513 16.8816H44.0153ZM45.1761 19.2489C45.3413 19.8918 45.5195 20.5589 45.7484 21.2803L47.0664 25.098H43.3149L44.6142 21.2556C44.8129 20.6325 45.001 19.9593 45.1761 19.2489Z" fill="white"/>
<path d="M57.6935 20.614C57.0238 20.5847 56.3573 20.7209 55.7529 21.0107C55.1485 21.3005 54.6249 21.7349 54.2284 22.2754L54.1418 20.8436H52.1494L52.1612 21.0292C52.2231 21.9215 52.2441 22.9034 52.2441 24.3129V35.4109H54.4227V30.232C54.7952 30.6503 55.2549 30.9817 55.7695 31.2028C56.2841 31.4239 56.841 31.5293 57.4008 31.5115C58.0179 31.517 58.6296 31.3952 59.1975 31.1537C59.7655 30.9123 60.2776 30.5564 60.7019 30.1082C61.7093 28.9517 62.2314 27.4508 62.159 25.9186C62.2085 24.5331 61.7595 23.1757 60.8937 22.0929C60.5017 21.6263 60.0117 21.2519 59.4586 20.9963C58.9055 20.7407 58.3028 20.6102 57.6935 20.614ZM57.1508 22.4177C59.0931 22.4177 59.9618 24.217 59.9618 25.999C59.9618 28.2983 58.853 29.7264 57.0679 29.7264C56.4753 29.7263 55.9 29.5269 55.4345 29.1602C54.969 28.7936 54.6403 28.281 54.5013 27.705C54.4455 27.4741 54.4195 27.237 54.424 26.9996V25.2479C54.4322 25.067 54.4554 24.8872 54.4933 24.7102C54.5044 24.6483 54.5162 24.5908 54.5248 24.5332C54.6668 23.9397 55.0016 23.41 55.4768 23.0271C55.9519 22.6441 56.5407 22.4296 57.1508 22.4171V22.4177Z" fill="white"/>
<path d="M68.9108 20.614C68.2412 20.5848 67.5747 20.7211 66.9703 21.0109C66.3659 21.3007 65.8423 21.735 65.4458 22.2753L65.3591 20.8435H63.3711L63.3822 21.0292C63.4441 21.922 63.4664 22.9034 63.4664 24.3129V35.4109H65.645V30.2319C66.0172 30.6502 66.4768 30.9815 66.9912 31.2027C67.5056 31.4238 68.0622 31.5292 68.6219 31.5115C69.2391 31.5168 69.8509 31.3949 70.419 31.1535C70.9871 30.912 71.4995 30.5562 71.9242 30.1082C72.9307 28.9511 73.4524 27.4505 73.3807 25.9186C73.4297 24.5329 72.9803 23.1755 72.1141 22.0928C71.7218 21.6259 71.2313 21.2512 70.6776 20.9956C70.1239 20.74 69.5207 20.6097 68.9108 20.614ZM68.3688 22.4176C70.3098 22.4176 71.1792 24.217 71.1792 25.999C71.1792 28.2983 70.0697 29.7264 68.2859 29.7264C67.6933 29.7263 67.118 29.5269 66.6525 29.1602C66.1869 28.7935 65.8582 28.281 65.7193 27.7049C65.6637 27.474 65.6379 27.237 65.6425 26.9995V25.2478C65.6504 25.0663 65.6736 24.8859 65.7118 24.7083C65.7224 24.6464 65.7335 24.5907 65.7434 24.5332C65.885 23.9396 66.2197 23.4098 66.6948 23.0268C67.1699 22.6439 67.7587 22.4294 68.3688 22.417V22.4176Z" fill="white"/>
<path d="M82.9646 22.9819C80.9314 22.1948 80.2798 21.5754 80.2798 20.4314C80.2798 19.468 81.0452 18.4965 82.7549 18.4965C83.6497 18.4754 84.5335 18.6974 85.3122 19.1388L85.4978 19.2526L86.1129 17.4347L85.9891 17.3636C85.012 16.8534 83.9182 16.6081 82.8167 16.652C80.0385 16.652 78.0981 18.2923 78.0981 20.6393C78.0981 22.5327 79.3134 23.8568 81.9214 24.8041C83.7703 25.4953 84.4583 26.2031 84.4583 27.4165C84.4583 28.7901 83.3965 29.644 81.6894 29.644C80.5804 29.645 79.4932 29.3366 78.5498 28.7536L78.3611 28.6299L77.7764 30.4899L77.884 30.561C79.009 31.1889 80.2773 31.5148 81.5656 31.5071C85.3097 31.5071 86.6394 29.2245 86.6394 27.2692C86.6388 25.2552 85.5746 24.0121 82.9646 22.9819Z" fill="white"/>
<path d="M90.5601 18.3628L88.4236 19.0335V20.8434H86.8594V22.5846H88.4236V27.9176C88.4236 29.2065 88.6711 30.1105 89.1778 30.6816C89.4519 30.959 89.781 31.1759 90.144 31.3184C90.507 31.4609 90.8958 31.5258 91.2853 31.5089C91.8571 31.5166 92.4261 31.4287 92.969 31.249L93.0927 31.2056L92.9881 29.4614L92.779 29.5232C92.4493 29.6149 92.1074 29.6544 91.7655 29.6402C90.9215 29.6402 90.5608 29.1062 90.5608 27.852V22.5815H93.1886V20.8403H90.5608L90.5601 18.3628Z" fill="white"/>
<path d="M98.5867 20.614C95.5387 20.614 93.4102 22.8892 93.4102 26.1451C93.4102 29.3007 95.47 31.509 98.4221 31.509H98.4425C100.936 31.509 103.619 29.7722 103.619 25.9576C103.669 24.5424 103.172 23.1624 102.231 22.1046C101.761 21.615 101.194 21.2294 100.567 20.9727C99.9391 20.7159 99.2645 20.5937 98.5867 20.614ZM98.5248 22.3335C100.484 22.3335 101.377 24.2442 101.377 26.02C101.377 28.2036 100.159 29.7889 98.4833 29.7889H98.4623C96.8102 29.7889 95.6111 28.2303 95.6111 26.0832C95.6098 24.217 96.5114 22.3335 98.5236 22.3335H98.5248Z" fill="white"/>
<path d="M110.289 20.7148L110.158 20.6814C109.982 20.6352 109.799 20.6123 109.617 20.6133C109.044 20.6255 108.486 20.7957 108.004 21.1051C107.522 21.4146 107.135 21.8512 106.886 22.3669L106.824 20.8422H104.869L104.881 21.0279C104.94 21.8904 104.964 22.8581 104.964 24.1649L104.943 31.2806H107.121V25.7286C107.121 25.4459 107.141 25.1636 107.183 24.884C107.431 23.5506 108.329 22.6886 109.473 22.6886C109.668 22.6905 109.863 22.7027 110.057 22.7251L110.291 22.7492L110.289 20.7148Z" fill="white"/>
<path d="M115.186 20.5916C112.286 20.5916 110.261 22.9088 110.261 26.2266C110.261 29.4219 112.275 31.486 115.396 31.486C116.58 31.5122 117.756 31.2865 118.845 30.8239L118.977 30.762L118.558 29.1384L118.376 29.2121C117.51 29.5619 116.58 29.7281 115.646 29.7002C114.7 29.7002 112.517 29.3909 112.384 26.5446L119.415 26.5657L119.444 26.4265C119.494 26.1262 119.516 25.8219 119.509 25.5175C119.507 23.2467 118.376 20.5916 115.186 20.5916ZM115.041 22.2486C115.335 22.2353 115.629 22.2826 115.904 22.3876C116.179 22.4925 116.43 22.6529 116.641 22.8587C117.126 23.4226 117.392 24.1423 117.391 24.8864H112.423C112.624 23.6303 113.411 22.2498 115.041 22.2498V22.2486Z" fill="white"/>
<path d="M39.124 7.04554C39.8167 6.95259 40.5147 6.90544 41.2136 6.90444C42.3027 6.81606 43.3882 7.11303 44.2807 7.74349C44.6399 8.04022 44.9246 8.41698 45.1119 8.84357C45.2991 9.27016 45.3839 9.73469 45.3592 10.1999C45.3779 10.6937 45.2903 11.1858 45.1023 11.6429C44.9143 12.0999 44.6304 12.5111 44.2696 12.8488C43.3023 13.5652 42.1112 13.913 40.9104 13.8296C40.3138 13.8378 39.7174 13.8108 39.124 13.7485V7.04554ZM40.114 13.0815C40.4427 13.1185 40.7735 13.1321 41.104 13.1223C43.1936 13.1322 44.3278 12.0705 44.3278 10.2309C44.3389 8.60295 43.3279 7.60179 41.2612 7.60179C40.8772 7.5966 40.4936 7.62707 40.1153 7.69277L40.114 13.0815Z" fill="white"/>
<path d="M48.8624 13.8804C48.5222 13.9013 48.1814 13.8511 47.8616 13.7332C47.5418 13.6152 47.2501 13.432 47.005 13.1952C46.7599 12.9584 46.5667 12.6732 46.4378 12.3577C46.3089 12.0422 46.247 11.7033 46.2562 11.3626C46.245 11.01 46.3078 10.6589 46.4406 10.332C46.5735 10.0052 46.7733 9.7098 47.0274 9.46493C47.2814 9.22006 47.5839 9.03117 47.9154 8.91041C48.2469 8.78966 48.6001 8.73975 48.9521 8.76388C49.2929 8.73836 49.6354 8.78482 49.9571 8.90029C50.2788 9.01577 50.5727 9.19765 50.8195 9.43411C51.0664 9.67057 51.2607 9.95634 51.3899 10.2728C51.5191 10.5893 51.5803 10.9294 51.5694 11.2711C51.5807 11.6241 51.518 11.9756 51.3853 12.303C51.2527 12.6304 51.0531 12.9264 50.7993 13.1721C50.5454 13.4177 50.2431 13.6076 49.9115 13.7294C49.58 13.8513 49.2266 13.9025 48.8741 13.8797L48.8624 13.8804ZM48.8964 13.2127C49.1324 13.2017 49.3637 13.1427 49.5762 13.0395C49.7887 12.9362 49.978 12.7908 50.1325 12.612C50.287 12.4333 50.4035 12.225 50.4749 11.9997C50.5463 11.7745 50.5711 11.5371 50.5478 11.302C50.5707 11.0708 50.5461 10.8374 50.4754 10.6161C50.4048 10.3948 50.2896 10.1902 50.137 10.0151C49.9845 9.83988 49.7977 9.69773 49.5882 9.59737C49.3786 9.49702 49.1508 9.44059 48.9187 9.43151C47.761 9.43151 47.2554 10.4023 47.2554 11.3323C47.2325 11.564 47.257 11.798 47.3276 12.0199C47.3981 12.2418 47.5131 12.447 47.6655 12.623C47.818 12.799 48.0047 12.942 48.2144 13.0434C48.424 13.1448 48.652 13.2024 48.8846 13.2127H48.8964Z" fill="white"/>
<path d="M53.1343 8.87599L53.8644 11.351C54.0098 11.8968 54.1564 12.4122 54.2573 12.9177H54.2907C54.4145 12.4227 54.5939 11.8967 54.774 11.3609L55.6613 8.87354H56.4929L57.3356 11.3201C57.5373 11.8968 57.6951 12.4221 57.8182 12.9177H57.8517C57.958 12.3807 58.0969 11.8507 58.2675 11.3306L59.0421 8.87354H60.0198L58.2675 13.7666H57.3696L56.5386 11.4315C56.3491 10.9012 56.1876 10.3613 56.0548 9.81402H56.0325C55.9021 10.3666 55.7367 10.9103 55.5375 11.442L54.6595 13.7697H53.7604L52.1201 8.87663L53.1343 8.87599Z" fill="white"/>
<path d="M61.009 10.1999C61.009 9.68452 60.9979 9.27986 60.9639 8.87519H61.8406L61.8963 9.67462H61.9192C62.1155 9.38209 62.3835 9.14479 62.6977 8.98543C63.0119 8.82607 63.3616 8.74999 63.7136 8.76443C63.9826 8.75426 64.2506 8.80256 64.4991 8.90597C64.7475 9.00939 64.9706 9.16545 65.153 9.36343C65.3353 9.56141 65.4726 9.79662 65.5552 10.0528C65.6379 10.3089 65.664 10.58 65.6318 10.8472V13.7689H64.6418V10.948C64.6418 10.1591 64.3157 9.4921 63.3832 9.4921C63.0959 9.49066 62.8151 9.57699 62.5782 9.73954C62.3414 9.90209 62.1598 10.1331 62.0578 10.4017C62.0111 10.5348 61.9883 10.6751 61.9904 10.8162V13.7683H61.0004L61.009 10.1999Z" fill="white"/>
<path d="M67.2451 6.59106H68.2351V13.7686H67.2451V6.59106Z" fill="white"/>
<path d="M72.088 13.8804C71.7478 13.9013 71.407 13.8511 71.0872 13.7332C70.7674 13.6152 70.4757 13.432 70.2306 13.1952C69.9855 12.9584 69.7923 12.6732 69.6634 12.3577C69.5345 12.0422 69.4726 11.7033 69.4818 11.3626C69.4705 11.01 69.5332 10.6588 69.666 10.3319C69.7988 10.005 69.9987 9.70959 70.2527 9.4647C70.5068 9.21982 70.8094 9.0309 71.1409 8.91019C71.4725 8.78947 71.8257 8.73965 72.1777 8.76388C72.5186 8.73836 72.861 8.78482 73.1827 8.90029C73.5045 9.01577 73.7983 9.19765 74.0451 9.43411C74.292 9.67057 74.4863 9.95634 74.6155 10.2728C74.7447 10.5893 74.8059 10.9294 74.795 11.2711C74.8057 11.624 74.7426 11.9753 74.6097 12.3025C74.4769 12.6296 74.2772 12.9255 74.0234 13.171C73.7696 13.4166 73.4674 13.6064 73.136 13.7285C72.8047 13.8505 72.4515 13.902 72.0991 13.8797L72.088 13.8804ZM72.1214 13.2127C72.3575 13.2018 72.5889 13.1429 72.8015 13.0396C73.0142 12.9363 73.2035 12.7909 73.3581 12.612C73.5127 12.4332 73.6292 12.2248 73.7006 11.9994C73.772 11.7741 73.7968 11.5366 73.7735 11.3014C73.7963 11.0702 73.7717 10.8369 73.7011 10.6156C73.6305 10.3943 73.5154 10.1898 73.3629 10.0146C73.2103 9.83948 73.0236 9.69735 72.8142 9.59696C72.6047 9.49657 72.377 9.44006 72.1449 9.4309C70.9872 9.4309 70.4817 10.4017 70.4817 11.3317C70.4587 11.5634 70.4833 11.7974 70.5538 12.0193C70.6243 12.2412 70.7393 12.4464 70.8918 12.6224C71.0442 12.7984 71.231 12.9414 71.4406 13.0428C71.6502 13.1442 71.8782 13.2018 72.1109 13.2121L72.1214 13.2127Z" fill="white"/>
<path d="M79.8739 12.5967C79.869 12.989 79.8955 13.3811 79.9531 13.7692H79.0645L78.9748 13.1505H78.9414C78.7368 13.3889 78.481 13.5781 78.1932 13.7041C77.9053 13.8301 77.5928 13.8895 77.2788 13.8781C77.0759 13.9028 76.8701 13.8853 76.6743 13.8267C76.4785 13.7682 76.2969 13.6699 76.1408 13.5379C75.9848 13.4059 75.8576 13.2432 75.7673 13.0598C75.6771 12.8765 75.6256 12.6765 75.6162 12.4723C75.6162 11.2892 76.7844 10.642 78.8851 10.6526V10.5517C78.8851 10.1476 78.7614 9.40946 77.6476 9.41936C77.1483 9.41296 76.6561 9.53847 76.2207 9.78319L75.9955 9.18672C76.5513 8.9006 77.1686 8.75485 77.7936 8.76223C79.4674 8.76223 79.8714 9.78321 79.8714 10.7639L79.8739 12.5967ZM78.908 11.2719C77.8295 11.2521 76.605 11.4235 76.605 12.3739C76.6009 12.4928 76.6225 12.6112 76.6684 12.721C76.7143 12.8308 76.7833 12.9294 76.8708 13.0101C76.9582 13.0907 77.0621 13.1515 77.1752 13.1883C77.2884 13.2252 77.4081 13.2372 77.5263 13.2235C77.8061 13.24 78.0843 13.1703 78.3233 13.0238C78.5622 12.8773 78.7506 12.6611 78.8628 12.4043C78.8944 12.3134 78.9097 12.2176 78.908 12.1215V11.2719Z" fill="white"/>
<path d="M86.1526 6.59106V12.5058C86.1526 12.9389 86.1644 13.4339 86.1978 13.7693H85.3105L85.2659 12.9203H85.243C85.0506 13.2311 84.778 13.4843 84.4538 13.6533C84.1297 13.8223 83.766 13.9008 83.401 13.8806C83.0809 13.8818 82.7639 13.8171 82.4698 13.6906C82.1758 13.564 81.9109 13.3783 81.6917 13.145C81.4725 12.9117 81.3036 12.6358 81.1956 12.3344C81.0876 12.033 81.0428 11.7127 81.064 11.3932C81.0379 11.0575 81.0816 10.72 81.1924 10.402C81.3032 10.084 81.4786 9.79232 81.7076 9.54541C81.9366 9.29851 82.2142 9.10168 82.523 8.96733C82.8318 8.83298 83.1651 8.764 83.5019 8.76475C83.8154 8.73986 84.1301 8.79445 84.4169 8.92348C84.7038 9.05251 84.9534 9.25181 85.1428 9.50292H85.1651V6.59106H86.1526ZM85.1626 10.8679C85.1643 10.7386 85.1492 10.6096 85.1174 10.4843C85.027 10.1797 84.8377 9.91395 84.5795 9.72895C84.3212 9.54396 84.0086 9.45026 83.6912 9.4627C82.6684 9.4627 82.062 10.2714 82.062 11.3437C82.062 12.3443 82.6127 13.1635 83.6708 13.1635C83.9957 13.1714 84.314 13.0715 84.5762 12.8794C84.8383 12.6873 85.0295 12.4139 85.1199 12.1017C85.1528 11.9764 85.168 11.847 85.1651 11.7175L85.1626 10.8679Z" fill="white"/>
<path d="M92.3887 13.8804C92.0485 13.9013 91.7077 13.8512 91.388 13.7332C91.0682 13.6153 90.7765 13.4321 90.5314 13.1953C90.2862 12.9585 90.0931 12.6733 89.9642 12.3578C89.8352 12.0423 89.7734 11.7034 89.7825 11.3627C89.7713 11.01 89.8342 10.6589 89.967 10.3321C90.0998 10.0052 90.2997 9.70984 90.5537 9.46498C90.8077 9.22011 91.1102 9.03121 91.4418 8.91046C91.7733 8.78971 92.1264 8.7398 92.4784 8.76393C92.8194 8.73832 93.1619 8.78472 93.4837 8.90015C93.8055 9.01558 94.0994 9.19746 94.3463 9.43393C94.5932 9.6704 94.7876 9.95619 94.9168 10.2727C95.0461 10.5892 95.1072 10.9294 95.0964 11.2711C95.1071 11.6241 95.044 11.9753 94.9111 12.3025C94.7782 12.6297 94.5785 12.9255 94.3248 13.1711C94.071 13.4166 93.7688 13.6065 93.4374 13.7285C93.1061 13.8506 92.7529 13.9021 92.4005 13.8798L92.3887 13.8804ZM92.4228 13.2128C92.6588 13.2018 92.8901 13.1428 93.1026 13.0395C93.3151 12.9362 93.5044 12.7906 93.6589 12.6118C93.8133 12.433 93.9297 12.2246 94.001 11.9993C94.0723 11.774 94.097 11.5365 94.0736 11.3014C94.0966 11.0703 94.072 10.8369 94.0014 10.6156C93.9309 10.3942 93.8157 10.1897 93.6632 10.0145C93.5107 9.83931 93.3239 9.69717 93.1144 9.59682C92.9049 9.49646 92.6771 9.44002 92.445 9.43095C91.2873 9.43095 90.7824 10.4018 90.7824 11.3317C90.7595 11.5634 90.784 11.7973 90.8545 12.0192C90.925 12.2411 91.0399 12.4462 91.1923 12.6222C91.3447 12.7982 91.5314 12.9412 91.7409 13.0426C91.9504 13.1441 92.1784 13.2018 92.411 13.2121L92.4228 13.2128Z" fill="white"/>
<path d="M96.343 10.1999C96.343 9.68452 96.3313 9.27986 96.2979 8.87519H97.174L97.2303 9.67462H97.2526C97.4489 9.38209 97.7169 9.14479 98.031 8.98543C98.3452 8.82607 98.695 8.74999 99.047 8.76443C99.3162 8.7538 99.5845 8.80174 99.8334 8.90495C100.082 9.00816 100.306 9.16418 100.488 9.36222C100.671 9.56026 100.809 9.7956 100.891 10.052C100.974 10.3084 101 10.5797 100.968 10.8472V13.7689H99.9782V10.948C99.9782 10.1591 99.6527 9.4921 98.7197 9.4921C98.4323 9.4908 98.1515 9.57717 97.9145 9.73969C97.6776 9.90222 97.4959 10.1331 97.3937 10.4017C97.3471 10.5348 97.3242 10.6751 97.3262 10.8162V13.7683H96.3362L96.343 10.1999Z" fill="white"/>
<path d="M106.152 7.70361V8.87613H107.567V9.55369H106.152V12.1927C106.152 12.7991 106.343 13.1431 106.894 13.1431C107.087 13.1498 107.28 13.1289 107.467 13.0812L107.512 13.7588C107.228 13.8435 106.932 13.8852 106.636 13.8825C106.245 13.903 105.862 13.7697 105.568 13.5112C105.278 13.1493 105.141 12.6883 105.186 12.2267V9.55739H104.344V8.87987H105.186V7.98017L106.152 7.70361Z" fill="white"/>
<path d="M108.68 6.59106H109.67V9.64462H109.692C109.863 9.37216 110.109 9.15459 110.4 9.01782C110.711 8.84948 111.058 8.76261 111.411 8.76536C112.141 8.76536 113.31 9.16942 113.31 10.858V13.7699H112.32V10.9595C112.32 10.1607 111.994 9.50357 111.061 9.50357C110.777 9.50225 110.498 9.58631 110.262 9.74493C110.025 9.90354 109.842 10.1294 109.735 10.3933C109.682 10.5281 109.658 10.673 109.668 10.8178V13.7699H108.678L108.68 6.59106Z" fill="white"/>
<path d="M115.476 11.4747C115.468 11.7137 115.512 11.9515 115.604 12.1718C115.697 12.3922 115.837 12.5898 116.013 12.7512C116.189 12.9126 116.398 13.034 116.626 13.1069C116.854 13.1799 117.095 13.2027 117.332 13.1738C117.845 13.1872 118.355 13.1047 118.838 12.9306L119.017 13.5574C118.436 13.7774 117.818 13.8839 117.197 13.8712C115.534 13.8712 114.523 12.87 114.523 11.4042C114.501 11.0581 114.551 10.7111 114.671 10.3856C114.79 10.0601 114.977 9.7631 115.218 9.51374C115.459 9.26439 115.749 9.06815 116.071 8.93755C116.392 8.80694 116.737 8.74485 117.084 8.75529C117.387 8.74103 117.69 8.79147 117.972 8.90326C118.255 9.01504 118.51 9.18561 118.722 9.40365C118.933 9.62169 119.096 9.88222 119.199 10.1679C119.302 10.4536 119.343 10.758 119.319 11.0608C119.323 11.203 119.312 11.3453 119.286 11.4852L115.476 11.4747ZM118.363 10.838C118.383 10.6506 118.361 10.4613 118.301 10.2828C118.24 10.1044 118.142 9.94103 118.013 9.80386C117.884 9.66669 117.727 9.5589 117.552 9.48783C117.378 9.41677 117.19 9.38407 117.002 9.39198C116.613 9.39658 116.241 9.54821 115.959 9.81636C115.677 10.0845 115.508 10.4493 115.484 10.8374L118.363 10.838Z" fill="white"/>
</svg>
