<svg width="133" height="43" viewBox="0 0 133 43" fill="none" xmlns="http://www.w3.org/2000/svg">
<path d="M132.212 37.1883C132.212 38.7293 131.6 40.2073 130.511 41.2972C129.421 42.3871 127.944 42.9996 126.402 42.9999H6.57124C5.03007 42.9996 3.55212 42.3871 2.4624 41.2973C1.37268 40.2075 0.760422 38.7295 0.760254 37.1883V5.81099C0.760422 4.26987 1.3727 2.79192 2.46244 1.70219C3.55217 0.612455 5.03012 0.000167978 6.57124 0H126.403C127.944 0.000335975 129.422 0.612706 130.511 1.70244C131.601 2.79218 132.213 4.27004 132.213 5.81099L132.212 37.1883Z" fill="black"/>
<path d="M103.063 28.53C102.544 28.5365 102.029 28.4324 101.553 28.2247C101.094 28.0186 100.698 27.6947 100.405 27.2859H100.313C100.373 27.7523 100.403 28.222 100.405 28.6922V32.1764H99.123V19.907H100.166L100.343 21.0663H100.406C100.697 20.6372 101.094 20.2911 101.558 20.0622C102.031 19.8486 102.546 19.7431 103.065 19.7531C103.558 19.7265 104.05 19.8171 104.501 20.0172C104.953 20.2174 105.351 20.5215 105.662 20.9047C106.263 21.8775 106.58 22.999 106.578 24.1427C106.575 25.2863 106.253 26.4064 105.647 27.3764C105.337 27.7577 104.942 28.0607 104.493 28.2611C104.044 28.4615 103.554 28.5536 103.063 28.53ZM102.878 20.842C102.531 20.8098 102.181 20.8579 101.856 20.9825C101.53 21.107 101.238 21.3048 101.001 21.5604C100.557 22.2373 100.348 23.0408 100.405 23.8479V24.1336C100.329 25.0264 100.537 25.9204 101.001 26.6872C101.235 26.9569 101.531 27.1672 101.862 27.3008C102.194 27.4343 102.553 27.4874 102.909 27.4556C103.247 27.4668 103.583 27.3912 103.884 27.2359C104.185 27.0807 104.441 26.851 104.629 26.5687C105.081 25.8349 105.298 24.98 105.25 24.119C105.305 23.2637 105.087 22.4131 104.629 21.689C104.43 21.4137 104.166 21.1921 103.86 21.0443C103.555 20.8964 103.217 20.8269 102.878 20.842Z" fill="#F9F9F9"/>
<path d="M109.549 28.3751H108.267V16.3508H109.549V28.3751Z" fill="#F9F9F9"/>
<path d="M116.923 28.3748L116.669 27.1712H116.606C116.276 27.625 115.843 27.994 115.342 28.2481C114.844 28.4514 114.308 28.5474 113.77 28.53C113.054 28.572 112.348 28.3401 111.796 27.8813C111.55 27.6435 111.359 27.3552 111.236 27.0365C111.112 26.7177 111.059 26.3759 111.081 26.0347C111.081 24.3247 112.448 23.4283 115.184 23.3456L116.621 23.2993V22.7742C116.664 22.2475 116.512 21.7235 116.192 21.3026C116.011 21.1305 115.794 20.9992 115.558 20.9173C115.321 20.8353 115.07 20.8047 114.821 20.8275C113.984 20.8615 113.165 21.0834 112.426 21.4768L112.032 20.4955C112.466 20.2625 112.926 20.0836 113.404 19.9627C113.892 19.8351 114.394 19.7701 114.899 19.7695C115.705 19.7044 116.506 19.9443 117.143 20.4417C117.408 20.7299 117.61 21.0705 117.736 21.4414C117.862 21.8123 117.908 22.2055 117.873 22.5955V28.3748H116.923ZM114.025 27.4715C114.715 27.5105 115.391 27.2742 115.907 26.8145C116.142 26.5726 116.324 26.2843 116.442 25.968C116.56 25.6517 116.611 25.3144 116.591 24.9774V24.2128L115.307 24.2666C114.544 24.2424 113.787 24.4057 113.102 24.7424C112.881 24.879 112.701 25.0729 112.582 25.3036C112.463 25.5342 112.409 25.7928 112.426 26.0518C112.412 26.2485 112.443 26.4457 112.516 26.6289C112.589 26.8121 112.702 26.9766 112.847 27.1104C113.183 27.37 113.602 27.4983 114.025 27.4715Z" fill="#F9F9F9"/>
<path d="M118.618 19.9071H119.993L121.848 24.7362C122.155 25.5139 122.409 26.3116 122.608 27.1238H122.671C122.738 26.8607 122.878 26.4109 123.092 25.7745C123.306 25.138 124.005 23.182 125.189 19.9065H126.565L122.925 29.5494C122.681 30.3207 122.246 31.0179 121.661 31.5766C121.161 31.9821 120.532 32.1944 119.888 32.1746C119.498 32.1748 119.109 32.131 118.728 32.0441V31.0166C119.041 31.0812 119.359 31.1122 119.679 31.1091C120.113 31.1057 120.534 30.9581 120.875 30.6895C121.216 30.421 121.458 30.0467 121.564 29.6255L122.035 28.4218L118.618 19.9071Z" fill="#F9F9F9"/>
<path d="M79.3029 20.6941C79.6858 20.9658 79.9992 21.3239 80.2177 21.7394C80.4362 22.155 80.5536 22.6161 80.5604 23.0855C80.5604 24.3956 79.8167 25.0164 79.0723 25.6005C78.9341 25.7032 78.8186 25.8335 78.7333 25.9831C78.6479 26.1327 78.5945 26.2983 78.5763 26.4696C78.5871 26.6239 78.6346 26.7734 78.7148 26.9056C78.795 27.0378 78.9057 27.149 79.0375 27.2298L79.6754 27.7246C80.4546 28.3802 81.1622 28.9827 81.1622 30.2053C81.1622 31.8701 79.55 33.5527 76.5042 33.5527C73.9354 33.5527 72.6963 32.3307 72.6963 31.0187C72.7133 30.5703 72.8484 30.1344 73.0878 29.755C73.3273 29.3756 73.6628 29.0661 74.0602 28.8579C75.11 28.3294 76.2677 28.0504 77.443 28.0426C77.1246 27.7199 76.9355 27.2917 76.9115 26.839C76.9177 26.5979 76.9784 26.3615 77.0889 26.1472C76.8931 26.1656 76.6987 26.1827 76.5188 26.1827C76.1411 26.2015 75.7636 26.1436 75.4089 26.0126C75.0542 25.8816 74.7297 25.6801 74.455 25.4203C74.1803 25.1605 73.961 24.8478 73.8104 24.5009C73.6598 24.1541 73.581 23.7804 73.5787 23.4023C73.5878 22.9488 73.6936 22.5024 73.889 22.093C74.0845 21.6837 74.3651 21.3208 74.7121 21.0286C75.6211 20.3395 76.7448 19.9943 77.8839 20.0543H81.5322L80.3982 20.6922L79.3029 20.6941ZM78.0448 28.5589C77.9099 28.5427 77.774 28.5366 77.6381 28.5405C77.0082 28.5524 76.3828 28.6483 75.7782 28.8256C75.3624 28.9258 74.99 29.1573 74.7162 29.4859C74.4423 29.8144 74.2816 30.2224 74.2578 30.6494C74.2578 31.9062 75.4805 32.8109 77.3759 32.8109C79.0755 32.8109 79.9795 31.9943 79.9795 30.8971C79.9763 29.9937 79.3916 29.5154 78.0448 28.5589ZM78.5586 25.1931C78.8716 24.8375 79.031 24.3724 79.002 23.8996C79.002 22.6244 78.2419 20.6409 76.7715 20.6409C76.535 20.644 76.3019 20.6978 76.0879 20.7987C75.8739 20.8995 75.6841 21.0451 75.5312 21.2256C75.2548 21.6049 75.1173 22.0677 75.1416 22.5363C75.1416 23.7228 75.8327 25.6892 77.3588 25.6892C77.8069 25.678 78.235 25.5013 78.5605 25.1931H78.5586Z" fill="#F9F9F9"/>
<path d="M68.1525 28.275C67.5926 28.2939 67.0346 28.2 66.5118 27.9987C65.989 27.7974 65.5121 27.493 65.1095 27.1035C64.7068 26.7139 64.3867 26.2474 64.1683 25.7315C63.9498 25.2157 63.8374 24.6611 63.8378 24.1009C63.8486 23.5156 63.9766 22.9384 64.2142 22.4033C64.4519 21.8683 64.7943 21.3863 65.2213 20.9858C65.6483 20.5853 66.1512 20.2745 66.7003 20.0716C67.2495 19.8687 67.8337 19.7779 68.4185 19.8046C68.9724 19.7923 69.5232 19.8914 70.038 20.0961C70.5529 20.3008 71.0213 20.6069 71.4155 20.9962C71.8097 21.3855 72.1217 21.8501 72.3328 22.3623C72.5439 22.8745 72.65 23.424 72.6446 23.978C72.6418 24.5581 72.5222 25.1317 72.293 25.6646C72.0638 26.1975 71.7296 26.6788 71.3104 27.0798C70.8912 27.4808 70.3956 27.7933 69.853 27.9986C69.3105 28.2039 68.7321 28.2979 68.1525 28.275ZM70.3627 26.8426C70.7489 26.2633 70.9355 25.5738 70.8942 24.8788C70.8942 23.3223 70.1518 20.3519 67.9586 20.3519C67.3735 20.3574 66.8094 20.5709 66.3673 20.9544C66.0793 21.2307 65.8567 21.5679 65.7158 21.9413C65.5749 22.3148 65.5194 22.715 65.5533 23.1127C65.5533 24.8624 66.4199 27.7435 68.5605 27.7435C68.9101 27.743 69.2548 27.6614 69.5676 27.5051C69.8803 27.3488 70.1525 27.122 70.3627 26.8426Z" fill="#F9F9F9"/>
<path d="M58.5673 28.2749C58.0073 28.294 57.4493 28.2001 56.9264 27.9989C56.4035 27.7976 55.9265 27.4932 55.5238 27.1037C55.1211 26.7142 54.801 26.2475 54.5825 25.7317C54.3639 25.2158 54.2515 24.6611 54.252 24.1009C54.2629 23.5156 54.3909 22.9384 54.6286 22.4034C54.8662 21.8684 55.2086 21.3865 55.6356 20.986C56.0626 20.5855 56.5655 20.2746 57.1146 20.0717C57.6637 19.8688 58.2479 19.778 58.8327 19.8046C59.3866 19.7922 59.9373 19.8913 60.4522 20.096C60.967 20.3007 61.4355 20.6069 61.8297 20.9962C62.2239 21.3855 62.5358 21.85 62.747 22.3623C62.9581 22.8745 63.0641 23.424 63.0587 23.978C63.0559 24.558 62.9364 25.1316 62.7072 25.6644C62.4781 26.1973 62.1439 26.6786 61.7248 27.0796C61.3057 27.4805 60.8101 27.793 60.2676 27.9984C59.7251 28.2038 59.1469 28.2978 58.5673 28.2749ZM60.7781 26.8426C61.1638 26.2631 61.3501 25.5737 61.309 24.8788C61.309 23.3223 60.5659 20.3519 58.3728 20.3519C57.7877 20.3574 57.2236 20.571 56.7815 20.9544C56.4935 21.2307 56.271 21.5679 56.1303 21.9414C55.9895 22.3148 55.9341 22.715 55.9681 23.1126C55.9681 24.8623 56.834 27.7434 58.9746 27.7434C59.3243 27.743 59.6692 27.6614 59.982 27.5051C60.2949 27.3488 60.5672 27.122 60.7775 26.8426H60.7781Z" fill="#F9F9F9"/>
<path d="M52.9011 27.9983L50.3583 28.5849C49.39 28.7619 48.4093 28.8627 47.4253 28.8865C42.5176 28.8865 40.6514 25.2756 40.6514 22.4502C40.6514 19.0015 43.3 15.8018 47.8345 15.8018C48.7537 15.8034 49.6684 15.9289 50.5541 16.1749C51.3977 16.3918 52.1928 16.7657 52.8979 17.2772L51.4219 18.6816L50.7998 18.8229L51.2433 18.1115C50.7627 17.5807 50.1754 17.1575 49.5198 16.8696C48.8642 16.5817 48.1552 16.4357 47.4392 16.4409C44.6297 16.4409 42.5138 18.5752 42.5138 21.6862C42.5138 25.0279 44.9325 28.1751 48.8075 28.1751C49.5837 28.1946 50.3547 28.0432 51.0659 27.7316V24.8695L48.3818 25.0114L49.8034 24.2462H53.5726L53.1108 24.6896C53.0629 24.7219 53.0224 24.7638 52.9916 24.8127C52.9608 24.8615 52.9406 24.9163 52.9322 24.9734C52.9138 25.1337 52.8967 25.65 52.8967 25.8273L52.9011 27.9983Z" fill="#F9F9F9"/>
<path d="M84.9217 27.4857C84.3345 27.4325 84.2122 27.3261 84.2122 26.6318V16.5695C84.216 16.5315 84.2186 16.4915 84.2217 16.4548C84.2933 15.8327 84.4707 15.7263 85.0231 15.4058H82.4796L81.1455 16.0462H82.505V16.0544V16.0481V27.0245C82.505 27.3793 82.4347 27.4332 82.0254 27.9659H85.1726L85.8302 27.5757C85.5274 27.539 85.2245 27.5212 84.9217 27.4857Z" fill="#F9F9F9"/>
<path d="M92.1573 27.6491C91.9634 27.7555 91.7696 27.8797 91.5757 27.9658C91.035 28.1992 90.4504 28.3137 89.8615 28.3016C89.0239 28.3391 88.1976 28.0966 87.5132 27.6123C86.9411 27.1768 86.48 26.6124 86.1671 25.965C85.8543 25.3177 85.6986 24.6056 85.7128 23.8868C85.7025 23.3513 85.7998 22.8192 85.9989 22.3221C86.1981 21.8249 86.495 21.3727 86.872 20.9924C87.2491 20.6121 87.6987 20.3113 88.1941 20.1079C88.6896 19.9046 89.2208 19.8027 89.7564 19.8084C90.3971 19.8002 91.0274 19.9716 91.5757 20.3031C92.1933 20.7086 92.6344 21.3328 92.8104 22.0503L88.6623 23.7284L87.3022 23.8342C87.7457 26.0768 89.2616 27.3817 90.9391 27.3817C91.6972 27.3583 92.4374 27.1463 93.0929 26.7647L92.1573 27.6491ZM90.4982 22.3867C90.8326 22.2632 91.0094 22.1574 91.0094 21.9103C90.953 21.4875 90.7442 21.0998 90.4223 20.8199C90.1005 20.54 89.6875 20.3871 89.261 20.3899C88.554 20.3899 87.2338 20.9379 87.2338 22.8441C87.2338 23.1443 87.2693 23.4617 87.2876 23.7804L90.4982 22.3867Z" fill="#F9F9F9"/>
<path d="M93.861 19.9308V21.0958H93.7198V19.9308H93.334V19.8098H94.2462V19.9308H93.861Z" fill="#F9F9F9"/>
<path d="M95.4494 21.0958V19.92H95.443L95.0838 21.0958H94.9736L94.6113 19.92H94.6062V21.0958H94.4795V19.8098H94.7L95.0275 20.8494H95.0319L95.3543 19.8098H95.578V21.0958H95.4494Z" fill="#F9F9F9"/>
<path d="M44.1817 12.3398H43.2986C43.2456 11.9886 43.1608 11.643 43.0452 11.3072H41.7744C41.6536 11.6419 41.5666 11.9878 41.5147 12.3398H40.6835C40.6835 12.268 40.8985 11.6791 41.3284 10.573C41.5857 9.97953 41.8012 9.36883 41.9733 8.74536H43.0167C43.1739 9.35721 43.369 9.95871 43.6008 10.5464C43.83 11.1321 44.024 11.7309 44.1817 12.3398ZM42.9065 10.7801C42.7228 10.275 42.5652 9.7608 42.4345 9.23948H42.3902C42.3902 9.31128 42.2274 9.82483 41.9017 10.7801H42.9065Z" fill="#F7F8F8"/>
<path d="M47.744 12.3398H47.0598C46.8492 11.9157 46.5944 11.515 46.2996 11.1444C45.9277 10.6683 45.6231 10.1433 45.3944 9.5841H45.35C45.3936 9.94698 45.4166 10.312 45.4191 10.6775C45.4191 11.1324 45.4319 11.6864 45.4577 12.3398H44.7793C44.8071 11.7692 44.8208 11.1425 44.8204 10.4596C44.8204 9.78766 44.8067 9.21625 44.7793 8.74536H45.5996C45.775 9.16257 46.0041 9.55507 46.2812 9.91289C46.6186 10.3673 46.8986 10.8615 47.1149 11.3845H47.1561C47.1155 11.0178 47.0944 10.6492 47.0927 10.2803C47.0927 9.78154 47.0799 9.26989 47.0541 8.74536H47.7446C47.7184 9.20189 47.7055 9.7733 47.706 10.4596C47.7064 11.1459 47.7191 11.7726 47.744 12.3398Z" fill="#F7F8F8"/>
<path d="M51.7429 10.4182C51.7502 10.9212 51.5711 11.4091 51.24 11.7878C51.0645 11.9849 50.8467 12.1399 50.603 12.2413C50.3593 12.3426 50.0959 12.3877 49.8323 12.3731C49.5599 12.3731 49.1845 12.3621 48.706 12.3402C48.7301 11.7844 48.7421 11.1577 48.7421 10.46C48.7421 9.79017 48.7301 9.21877 48.706 8.74576H49.1894C49.2683 8.74576 49.3862 8.74302 49.5428 8.73753C49.6993 8.73183 49.8013 8.72929 49.8495 8.72929C50.1119 8.70511 50.3765 8.73692 50.6257 8.82265C50.8749 8.90838 51.103 9.04607 51.2951 9.22658C51.5914 9.55177 51.7517 9.97827 51.7429 10.4182ZM50.9891 10.5366C50.9988 10.2111 50.8889 9.89327 50.68 9.64341C50.5596 9.51619 50.4123 9.41755 50.2489 9.35474C50.0854 9.29192 49.91 9.26652 49.7354 9.28042C49.6265 9.2826 49.5178 9.29085 49.4098 9.30513C49.4284 9.6734 49.4377 10.0581 49.4377 10.4593C49.4377 10.8994 49.4468 11.3357 49.4649 11.7681C49.5832 11.792 49.7035 11.8041 49.8241 11.8042C49.9894 11.8171 50.1554 11.7903 50.3083 11.7262C50.4612 11.6621 50.5967 11.5625 50.7034 11.4356C50.8972 11.1768 50.9971 10.8597 50.9866 10.5366H50.9891Z" fill="#F7F8F8"/>
<path d="M55.433 12.3396H54.6158C54.5008 11.9202 54.3358 11.5161 54.1242 11.136C54.0576 11.056 53.9727 10.9934 53.8766 10.9534C53.7805 10.9135 53.6761 10.8975 53.5725 10.9067C53.4656 10.9067 53.3634 10.9067 53.2658 10.9067C53.2658 11.3797 53.2741 11.8574 53.2905 12.3396H52.5234C52.5475 11.7839 52.5593 11.1571 52.5589 10.4594C52.5589 9.78964 52.547 9.21824 52.5234 8.74523H53.001C53.0564 8.74523 53.1719 8.74249 53.3476 8.737C53.5232 8.73151 53.6856 8.72876 53.8347 8.72876C54.6794 8.72876 55.1017 9.01764 55.1017 9.59538C55.1057 9.81296 55.0365 10.0256 54.9054 10.1992C54.7742 10.3729 54.5886 10.4975 54.3783 10.5532V10.5944C54.592 10.6694 54.7677 10.8255 54.8673 11.029C55.0881 11.4512 55.2772 11.8893 55.433 12.3396ZM54.3979 9.79936C54.3979 9.4332 54.1622 9.25012 53.6909 9.25012C53.5372 9.2483 53.3836 9.26124 53.2323 9.28876C53.2525 9.57383 53.2627 9.9457 53.2627 10.4043C53.3636 10.4081 53.4491 10.41 53.5192 10.41C54.105 10.41 54.3979 10.2067 54.3979 9.79999V9.79936Z" fill="#F7F8F8"/>
<path d="M59.39 10.476C59.4075 10.9941 59.2212 11.4985 58.8712 11.881C58.7097 12.0605 58.5116 12.2032 58.2901 12.2994C58.0687 12.3955 57.8292 12.443 57.5878 12.4385C57.3598 12.4437 57.1333 12.4007 56.9231 12.3124C56.7128 12.2241 56.5236 12.0924 56.3677 11.926C56.2036 11.7525 56.0757 11.5481 55.9913 11.3248C55.9069 11.1014 55.8677 10.8635 55.8761 10.6248C55.8585 10.1066 56.0448 9.6022 56.3949 9.21976C56.5564 9.04026 56.7545 8.89757 56.976 8.80138C57.1974 8.7052 57.437 8.65776 57.6784 8.66229C57.9062 8.65709 58.1326 8.69993 58.3428 8.78801C58.5531 8.87609 58.7424 9.00744 58.8985 9.17352C59.0627 9.34715 59.1907 9.55173 59.2751 9.77534C59.3595 9.99895 59.3986 10.2371 59.39 10.476ZM58.6299 10.5558C58.6452 10.2187 58.5403 9.88713 58.334 9.62012C58.2487 9.50777 58.1384 9.41683 58.0118 9.35449C57.8853 9.29215 57.746 9.26013 57.6049 9.26094C57.4701 9.26202 57.3376 9.29543 57.2184 9.35837C57.0993 9.42132 56.9969 9.51195 56.9201 9.62265C56.7251 9.88627 56.6256 10.2085 56.6382 10.5361C56.6233 10.873 56.7286 11.2042 56.9353 11.4705C57.0204 11.5829 57.1304 11.674 57.2568 11.7365C57.3831 11.7991 57.5222 11.8314 57.6632 11.831C57.798 11.83 57.9306 11.7965 58.0498 11.7334C58.169 11.6703 58.2713 11.5795 58.348 11.4686C58.5419 11.2051 58.6407 10.8834 58.628 10.5564L58.6299 10.5558Z" fill="#F7F8F8"/>
<path d="M60.9502 12.3398H60.166C60.19 11.7692 60.2021 11.1425 60.2021 10.4596C60.2021 9.78766 60.19 9.21625 60.166 8.74536H60.9471C60.923 9.20992 60.9112 9.78132 60.9116 10.4596C60.9137 11.1539 60.9266 11.7806 60.9502 12.3398Z" fill="#F7F8F8"/>
<path d="M64.9533 10.4182C64.9607 10.9211 64.7818 11.409 64.4509 11.7878C64.2754 11.9849 64.0577 12.1399 63.814 12.2413C63.5703 12.3426 63.3068 12.3877 63.0433 12.3731C62.7709 12.3731 62.3954 12.3621 61.9169 12.3402C61.941 11.7844 61.9531 11.1577 61.9531 10.46C61.9531 9.79017 61.941 9.21877 61.9169 8.74576H62.4003C62.4793 8.74576 62.5971 8.74302 62.7538 8.73753C62.9105 8.73204 63.0127 8.72929 63.0604 8.72929C63.3228 8.70511 63.5874 8.73692 63.8366 8.82265C64.0858 8.90838 64.314 9.04607 64.506 9.22658C64.8021 9.55191 64.9622 9.97836 64.9533 10.4182ZM64.2 10.5366C64.2098 10.2111 64.0998 9.89327 63.8909 9.64341C63.7706 9.51619 63.6233 9.41755 63.4598 9.35474C63.2964 9.29192 63.1209 9.26652 62.9464 9.28042C62.8375 9.28259 62.7287 9.29084 62.6207 9.30513C62.6393 9.6734 62.6486 10.0581 62.6486 10.4593C62.6486 10.8994 62.6577 11.3357 62.6759 11.7681C62.7941 11.792 62.9144 11.8041 63.035 11.8042C63.2004 11.8171 63.3664 11.7903 63.5193 11.7262C63.6722 11.6621 63.8076 11.5625 63.9143 11.4356C64.1081 11.1768 64.208 10.8597 64.1975 10.5366H64.2Z" fill="#F7F8F8"/>
<path d="M70.2614 12.3398H69.3783C69.3255 11.9886 69.2407 11.6429 69.1249 11.3072H67.8497C67.729 11.6419 67.6422 11.9878 67.5906 12.3398H66.7607C66.7607 12.268 66.9754 11.6791 67.405 10.573C67.6621 9.97955 67.8773 9.36885 68.0492 8.74536H69.0926C69.2497 9.35723 69.4448 9.95874 69.6766 10.5464C69.907 11.132 70.1023 11.7309 70.2614 12.3398ZM68.9861 10.7801C68.8023 10.275 68.6446 9.76079 68.5136 9.23948H68.4698C68.4698 9.31128 68.307 9.82483 67.9814 10.7801H68.9861Z" fill="#F7F8F8"/>
<path d="M73.482 9.68654C73.4944 9.87788 73.4555 10.0691 73.3693 10.2404C73.2831 10.4116 73.1528 10.5568 72.9917 10.6609C72.6298 10.8812 72.2115 10.9912 71.7881 10.9776C71.7015 10.9776 71.6399 10.9757 71.6031 10.9719C71.6031 11.3178 71.6132 11.7743 71.6335 12.3415H70.8613C70.8854 11.8098 70.8974 11.1831 70.8974 10.4613C70.8974 9.79868 70.8854 9.22726 70.8613 8.74707H71.3421C71.4101 8.74707 71.5408 8.74433 71.7342 8.73884C71.9277 8.73335 72.0951 8.7306 72.2366 8.7306C72.5492 8.72025 72.8579 8.80293 73.1235 8.96816C73.241 9.04593 73.336 9.15326 73.3989 9.27936C73.4619 9.40545 73.4905 9.54587 73.482 9.68654ZM72.7693 9.83795C72.7693 9.44434 72.5079 9.24753 71.9851 9.24753C71.846 9.24817 71.7073 9.26196 71.5708 9.28871C71.5911 9.63629 71.6012 10.0301 71.6012 10.4702C71.6474 10.474 71.7007 10.4759 71.7615 10.4759C72.4334 10.4776 72.7693 10.2651 72.7693 9.83859V9.83795Z" fill="#F7F8F8"/>
<path d="M76.7925 9.68654C76.805 9.87782 76.7662 10.069 76.6801 10.2403C76.594 10.4115 76.4638 10.5567 76.3028 10.6609C75.9409 10.8811 75.5227 10.9912 75.0992 10.9776C75.0124 10.9776 74.951 10.9776 74.9142 10.9719C74.9142 11.3178 74.9244 11.7743 74.9446 12.3415H74.1699C74.1939 11.8098 74.206 11.1831 74.206 10.4613C74.206 9.79868 74.1939 9.22726 74.1699 8.74707H74.6501C74.7181 8.74707 74.8488 8.74433 75.0422 8.73884C75.2356 8.73335 75.4031 8.7306 75.5446 8.7306C75.8572 8.72025 76.1658 8.80293 76.4314 8.96816C76.5495 9.04557 76.645 9.15277 76.7084 9.27889C76.7718 9.40502 76.8008 9.54562 76.7925 9.68654ZM76.0805 9.83795C76.0805 9.44434 75.8191 9.24753 75.2962 9.24753C75.1571 9.24817 75.0184 9.26196 74.8819 9.28871C74.9022 9.63629 74.9123 10.0301 74.9123 10.4702C74.9586 10.474 75.0118 10.4759 75.0726 10.4759C75.7462 10.4776 76.083 10.2651 76.083 9.83859L76.0805 9.83795Z" fill="#F7F8F8"/>
<path d="M82.2071 10.476C82.2244 10.9942 82.0379 11.4987 81.6876 11.881C81.5262 12.0605 81.328 12.2032 81.1065 12.2994C80.8851 12.3956 80.6456 12.443 80.4042 12.4385C80.1762 12.4437 79.9497 12.4007 79.7395 12.3124C79.5292 12.2241 79.34 12.0924 79.1841 11.926C79.0201 11.7525 78.8922 11.5481 78.8078 11.3247C78.7234 11.1014 78.6842 10.8635 78.6925 10.6248C78.6751 10.1066 78.8613 9.60227 79.2113 9.21975C79.3729 9.0402 79.5711 8.89749 79.7927 8.8013C80.0142 8.70512 80.2539 8.65771 80.4954 8.66228C80.7232 8.65712 80.9496 8.69998 81.1598 8.78806C81.37 8.87614 81.5594 9.00747 81.7155 9.17351C81.8797 9.34719 82.0077 9.55177 82.0921 9.77537C82.1765 9.99897 82.2156 10.2371 82.2071 10.476ZM81.4469 10.5558C81.4625 10.2188 81.3578 9.88716 81.1517 9.62011C81.0664 9.50785 80.9562 9.41697 80.8298 9.35464C80.7033 9.2923 80.5641 9.26022 80.4232 9.26093C80.2884 9.26201 80.1559 9.29542 80.0367 9.35837C79.9175 9.42131 79.8152 9.51194 79.7384 9.62264C79.5436 9.88635 79.4444 10.2085 79.4571 10.5361C79.4422 10.873 79.5475 11.2042 79.7542 11.4705C79.8392 11.5829 79.9492 11.6739 80.0754 11.7364C80.2016 11.799 80.3406 11.8314 80.4815 11.831C80.6164 11.8299 80.749 11.7964 80.8682 11.7332C80.9874 11.67 81.0896 11.5791 81.1662 11.468C81.3597 11.2045 81.458 10.8831 81.445 10.5564L81.4469 10.5558Z" fill="#F7F8F8"/>
<path d="M85.9491 12.3398H85.2675C85.0569 11.9157 84.8021 11.515 84.5073 11.1444C84.1352 10.6683 83.8304 10.1433 83.6014 9.5841H83.5577C83.6011 9.94699 83.6241 10.312 83.6267 10.6775C83.6267 11.1324 83.6396 11.6864 83.6654 12.3398H82.9863C83.0137 11.7692 83.0275 11.1425 83.0275 10.4596C83.0275 9.78766 83.0137 9.21625 82.9863 8.74536H83.806C83.9817 9.16256 84.211 9.55506 84.4883 9.91289C84.8257 10.3672 85.1057 10.8615 85.3219 11.3845H85.3631C85.3225 11.0178 85.3013 10.6492 85.2998 10.2803C85.2998 9.78154 85.2869 9.26989 85.2611 8.74536H85.951C85.9252 9.20189 85.9124 9.7733 85.9124 10.4596C85.9124 11.1459 85.9246 11.7726 85.9491 12.3398Z" fill="#F7F8F8"/>
<mask id="mask0_1808_293" style="mask-type:alpha" maskUnits="userSpaceOnUse" x="12" y="10" width="20" height="22">
<path d="M30.8178 19.7965C31.8472 20.363 31.8472 21.8256 30.8178 22.3921L14.3544 31.4515C13.3518 32.0032 12.1182 31.2873 12.1182 30.1537L12.1182 12.0349C12.1182 10.9013 13.3518 10.1854 14.3544 10.7371L30.8178 19.7965Z" fill="#C4C4C4"/>
</mask>
<g mask="url(#mask0_1808_293)">
<path d="M12.6331 31.2734L22.9025 20.9463L12.8023 10.7893C12.3993 11.0476 12.1182 11.4936 12.1182 12.0347V30.1536C12.1182 30.6153 12.3228 31.0077 12.6331 31.2734Z" fill="url(#paint0_linear_1808_293)"/>
<path d="M30.8181 19.7966C31.8475 20.3631 31.8475 21.8257 30.8181 22.3921L26.6647 24.6777L22.9028 20.9464L26.4729 17.4055L30.8181 19.7966Z" fill="url(#paint1_linear_1808_293)"/>
<path d="M26.6646 24.6775L22.9027 20.9463L12.6333 31.2734C13.0849 31.6601 13.7603 31.7784 14.3546 31.4514L26.6646 24.6775Z" fill="url(#paint2_linear_1808_293)"/>
<path d="M12.8023 10.7894L22.9025 20.9464L26.4726 17.4054L14.3544 10.7371C13.8305 10.4488 13.2434 10.5067 12.8023 10.7894Z" fill="url(#paint3_linear_1808_293)"/>
</g>
<defs>
<linearGradient id="paint0_linear_1808_293" x1="19.1579" y1="16.9352" x2="12.1758" y2="23.9747" gradientUnits="userSpaceOnUse">
<stop stop-color="#00C3FF"/>
<stop offset="1" stop-color="#1BE2FA"/>
</linearGradient>
<linearGradient id="paint1_linear_1808_293" x1="22.9028" y1="20.9465" x2="32.1893" y2="20.9465" gradientUnits="userSpaceOnUse">
<stop stop-color="#FFCE00"/>
<stop offset="1" stop-color="#FFEA00"/>
</linearGradient>
<linearGradient id="paint2_linear_1808_293" x1="12.4179" y1="32.534" x2="24.7709" y2="22.6304" gradientUnits="userSpaceOnUse">
<stop stop-color="#DE2453"/>
<stop offset="1" stop-color="#FE3944"/>
</linearGradient>
<linearGradient id="paint3_linear_1808_293" x1="13.0169" y1="9.65578" x2="24.7728" y2="19.2578" gradientUnits="userSpaceOnUse">
<stop stop-color="#11D574"/>
<stop offset="1" stop-color="#01F176"/>
</linearGradient>
</defs>
</svg>
